<svg xmlns="http://www.w3.org/2000/svg" viewBox="0 0 16 16" fill="none" shape-rendering="crispEdges" width="32" height="32"><metadata xmlns:rdf="http://www.w3.org/1999/02/22-rdf-syntax-ns#" xmlns:xsi="http://www.w3.org/2001/XMLSchema-instance" xmlns:dc="http://purl.org/dc/elements/1.1/" xmlns:dcterms="http://purl.org/dc/terms/"><rdf:RDF><rdf:Description><dc:title>Pixel Art</dc:title><dc:creator>DiceBear</dc:creator><dc:source xsi:type="dcterms:URI">https://www.figma.com/community/file/1198754108850888330</dc:source><dcterms:license xsi:type="dcterms:URI">https://creativecommons.org/publicdomain/zero/1.0/</dcterms:license><dc:rights>„Pixel Art” (https://www.figma.com/community/file/1198754108850888330) by „DiceBear”, licensed under „CC0 1.0” (https://creativecommons.org/publicdomain/zero/1.0/)</dc:rights></rdf:Description></rdf:RDF></metadata><mask id="viewboxMask"><rect width="16" height="16" rx="0" ry="0" x="0" y="0" fill="#fff" /></mask><g mask="url(#viewboxMask)"><path d="M4 2h8v1h1v3h1v2h-1v3h-1v1H9v1h4v1h1v2H2v-2h1v-1h4v-1H4v-1H3V8H2V6h1V3h1V2Z" fill="#eac393"/><path d="M4 2h8v1h1v3h1v2h-1v3h-1v1H4v-1H3V8H2V6h1V3h1V2Z" fill="#fff" fill-opacity=".1"/><path d="M6 13H4v3h2v-3ZM12 13h-2v3h2v-3Z" fill="#ffc425"/><path fill="#fff" fill-opacity=".2" d="M5 13h1v3H5zM10 13h1v3h-1z"/><path fill="#fff" d="M12 5H9v3h3zM7 5H4v3h3z"/><path fill="#5b7c8b" d="M12 6h-2v1h2zM7 6H5v1h2z"/><path fill="#fff" fill-opacity=".7" d="M12 6h-1v1h1zM7 6H6v1h1z"/><path fill-rule="evenodd" clip-rule="evenodd" d="M2 5v1h1v2h1v1h3V8h2v1h3V8h1V6h1V5H9v1H7V5H2Zm5 1v2H4V6h3Zm2 0v2h3V6H9Z" fill="#191919"/><path fill="#fff" fill-opacity=".3" d="M4 6h3v2H4zM9 6h3v2H9z"/><path fill="#fff" fill-opacity=".2" d="M2 5h2v1H2zM12 5h2v1h-2z"/><path d="M7 9v2h2v-1H8V9H7Z" fill="#c98276"/><path d="M9 11v-1H8V9H7v1h1v1h1Z" fill="#fff" fill-opacity=".2"/><path d="M6 1v1H3v2H2v2h1V5h4V4h3V3h2v1h1v2h1V2h-2V1H6ZM2 8h1v2H2V8ZM14 8h-1v2h1V8Z" fill="#28150a"/><path d="M12 0H4v2H2v3h12V2h-2V0Z" fill="#a62116"/><path fill="#fff" fill-opacity=".3" d="M10 2h1v3h-1zM8 3h1v2H8z"/></g></svg>